<?xml version="1.0" standalone="no"?><!DOCTYPE svg PUBLIC "-//W3C//DTD SVG 1.1//EN" "http://www.w3.org/Graphics/SVG/1.1/DTD/svg11.dtd"><svg t="1580742065963" class="icon" viewBox="0 0 1612 1024" version="1.1" xmlns="http://www.w3.org/2000/svg" p-id="9724" xmlns:xlink="http://www.w3.org/1999/xlink" width="314.84375" height="200"><defs><style type="text/css"></style></defs><path d="M876.498 275.912H148.44c-19.866 0-35.971-16.105-35.971-35.971 0-19.866 16.105-35.971 35.971-35.971h728.058c19.866 0 35.971 16.105 35.971 35.971 0 19.866-16.105 35.971-35.971 35.971zM678.667 819.97H146.272c-18.669 0-33.803-15.134-33.803-33.802v-4.337c0-18.669 15.134-33.803 33.803-33.803h532.395c18.669 0 33.803 15.134 33.803 33.803v4.337c-0.001 18.668-15.135 33.802-33.803 33.802zM876.498 547.941H148.44c-19.866 0-35.971-16.105-35.971-35.971 0-19.866 16.105-35.971 35.971-35.971h728.058c19.866 0 35.971 16.105 35.971 35.971 0 19.866-16.105 35.971-35.971 35.971z" p-id="9725" fill="#898989"></path><path d="M1611.713 532.844h-14.561a0.72 0.72 0 0 1 0-1.438h14.561a0.72 0.72 0 0 1 0 1.438zM1607.756 538.204h-10.648a0.676 0.676 0 0 1-0.676-0.676v-0.087c0-0.373 0.303-0.676 0.676-0.676h10.648c0.373 0 0.676 0.303 0.676 0.676v0.087a0.676 0.676 0 0 1-0.676 0.676zM1611.713 543.725h-14.561a0.72 0.72 0 0 1 0-1.438h14.561a0.72 0.72 0 0 1 0 1.438z" p-id="9726" fill="#898989"></path></svg>