<?xml version="1.0" standalone="no"?><!DOCTYPE svg PUBLIC "-//W3C//DTD SVG 1.1//EN" "http://www.w3.org/Graphics/SVG/1.1/DTD/svg11.dtd"><svg t="1580742168958" class="icon" viewBox="0 0 1024 1024" version="1.1" xmlns="http://www.w3.org/2000/svg" p-id="15665" xmlns:xlink="http://www.w3.org/1999/xlink" width="200" height="200"><defs><style type="text/css"></style></defs><path d="M138.24 414.72L486.4 570.88c30.72 15.36 43.52 15.36 76.8 0l348.16-156.16c25.6-12.8 25.6-61.44 0-76.8L563.2 156.16c-28.16-15.36-46.08-15.36-76.8 0L138.24 337.92c-25.6 17.92-25.6 64 0 76.8z m386.56-227.84l355.84 192-355.84 148.48-355.84-151.04 355.84-189.44z m0 680.96L168.96 704s-30.72-12.8-53.76-28.16c0 20.48 5.12 56.32 23.04 66.56L486.4 898.56c30.72 15.36 43.52 15.36 76.8 0L911.36 742.4c17.92-7.68 23.04-46.08 23.04-66.56-23.04 10.24-53.76 28.16-53.76 28.16l-355.84 163.84zM138.24 578.56L486.4 734.72c30.72 15.36 43.52 15.36 76.8 0l348.16-156.16c17.92-7.68 23.04-46.08 23.04-66.56-23.04 10.24-53.76 28.16-53.76 28.16l-355.84 163.84-355.84-163.84s-30.72-12.8-53.76-28.16c0 20.48 5.12 56.32 23.04 66.56z" p-id="15666" fill="#898989"></path></svg>